<svg aria-hidden="true" style="width:0;height:0;position:absolute;overflow:hidden" xmlns="http://www.w3.org/2000/svg"><defs><symbol id="icon-cart" viewBox="0 0 32 32"><path d="M12 29a3 3 0 1 1-6 0 3 3 0 0 1 6 0zM32 29a3 3 0 1 1-6 0 3 3 0 0 1 6 0zM32 16V4H8a2 2 0 0 0-2-2H0v2h4l1.502 12.877A4 4 0 0 0 8 24h24v-2H8a2 2 0 0 1-2-2v-.02L32 16z"/></symbol><symbol id="icon-search" viewBox="0 0 32 32"><path d="m31.008 27.231-7.58-6.447c-.784-.705-1.622-1.029-2.299-.998a11.954 11.954 0 0 0 2.87-7.787c0-6.627-5.373-12-12-12s-12 5.373-12 12 5.373 12 12 12c2.972 0 5.691-1.081 7.787-2.87-.031.677.293 1.515.998 2.299l6.447 7.58c1.104 1.226 2.907 1.33 4.007.23s.997-2.903-.23-4.007zM12 20a8 8 0 1 1 0-16 8 8 0 0 1 0 16z"/></symbol><symbol id="icon-facebook" viewBox="0 0 32 32"><path d="M29 0H3C1.35 0 0 1.35 0 3v26c0 1.65 1.35 3 3 3h13V18h-4v-4h4v-2c0-3.306 2.694-6 6-6h4v4h-4c-1.1 0-2 .9-2 2v2h6l-1 4h-5v14h9c1.65 0 3-1.35 3-3V3c0-1.65-1.35-3-3-3z"/></symbol><symbol id="icon-instagram" viewBox="0 0 32 32"><path d="M16 2.881c4.275 0 4.781.019 6.462.094 1.563.069 2.406.331 2.969.55a4.952 4.952 0 0 1 1.837 1.194 5.015 5.015 0 0 1 1.2 1.838c.219.563.481 1.412.55 2.969.075 1.688.094 2.194.094 6.463s-.019 4.781-.094 6.463c-.069 1.563-.331 2.406-.55 2.969a4.94 4.94 0 0 1-1.194 1.837 5.02 5.02 0 0 1-1.837 1.2c-.563.219-1.413.481-2.969.55-1.688.075-2.194.094-6.463.094s-4.781-.019-6.463-.094c-1.563-.069-2.406-.331-2.969-.55a4.952 4.952 0 0 1-1.838-1.194 5.02 5.02 0 0 1-1.2-1.837c-.219-.563-.481-1.413-.55-2.969-.075-1.688-.094-2.194-.094-6.463s.019-4.781.094-6.463c.069-1.563.331-2.406.55-2.969a4.964 4.964 0 0 1 1.194-1.838 5.015 5.015 0 0 1 1.838-1.2c.563-.219 1.412-.481 2.969-.55 1.681-.075 2.188-.094 6.463-.094zM16 0c-4.344 0-4.887.019-6.594.094-1.7.075-2.869.35-3.881.744-1.056.412-1.95.956-2.837 1.85a7.833 7.833 0 0 0-1.85 2.831C.444 6.538.169 7.7.094 9.4.019 11.113 0 11.656 0 16s.019 4.887.094 6.594c.075 1.7.35 2.869.744 3.881.413 1.056.956 1.95 1.85 2.837a7.82 7.82 0 0 0 2.831 1.844c1.019.394 2.181.669 3.881.744 1.706.075 2.25.094 6.594.094s4.888-.019 6.594-.094c1.7-.075 2.869-.35 3.881-.744 1.05-.406 1.944-.956 2.831-1.844s1.438-1.781 1.844-2.831c.394-1.019.669-2.181.744-3.881.075-1.706.094-2.25.094-6.594s-.019-4.887-.094-6.594c-.075-1.7-.35-2.869-.744-3.881a7.506 7.506 0 0 0-1.831-2.844A7.82 7.82 0 0 0 26.482.843C25.463.449 24.301.174 22.601.099c-1.712-.081-2.256-.1-6.6-.1z"/><path d="M16 7.781c-4.537 0-8.219 3.681-8.219 8.219s3.681 8.219 8.219 8.219 8.219-3.681 8.219-8.219A8.221 8.221 0 0 0 16 7.781zm0 13.55a5.331 5.331 0 1 1 0-10.663 5.331 5.331 0 0 1 0 10.663zM26.462 7.456a1.919 1.919 0 1 1-3.838 0 1.919 1.919 0 0 1 3.838 0z"/></symbol><symbol id="twitter" viewBox="0 0 32 32"><path d="M32 7.075a12.941 12.941 0 0 1-3.769 1.031 6.601 6.601 0 0 0 2.887-3.631 13.21 13.21 0 0 1-4.169 1.594A6.565 6.565 0 0 0 22.155 4a6.563 6.563 0 0 0-6.563 6.563c0 .512.056 1.012.169 1.494A18.635 18.635 0 0 1 2.23 5.195a6.56 6.56 0 0 0-.887 3.3 6.557 6.557 0 0 0 2.919 5.463 6.565 6.565 0 0 1-2.975-.819v.081a6.565 6.565 0 0 0 5.269 6.437 6.574 6.574 0 0 1-2.968.112 6.588 6.588 0 0 0 6.131 4.563 13.17 13.17 0 0 1-9.725 2.719 18.568 18.568 0 0 0 10.069 2.95c12.075 0 18.681-10.006 18.681-18.681 0-.287-.006-.569-.019-.85A13.216 13.216 0 0 0 32 7.076z"/></symbol><symbol id="icon-youtube" viewBox="0 0 32 32"><path d="M31.681 9.6s-.313-2.206-1.275-3.175C29.187 5.15 27.825 5.144 27.2 5.069c-4.475-.325-11.194-.325-11.194-.325h-.012s-6.719 0-11.194.325c-.625.075-1.987.081-3.206 1.356C.631 7.394.325 9.6.325 9.6s-.319 2.588-.319 5.181v2.425c0 2.587.319 5.181.319 5.181s.313 2.206 1.269 3.175c1.219 1.275 2.819 1.231 3.531 1.369 2.563.244 10.881.319 10.881.319s6.725-.012 11.2-.331c.625-.075 1.988-.081 3.206-1.356.962-.969 1.275-3.175 1.275-3.175s.319-2.587.319-5.181v-2.425c-.006-2.588-.325-5.181-.325-5.181zM12.694 20.15v-8.994l8.644 4.513-8.644 4.481z"/></symbol><symbol id="icon-business" viewBox="0 0 34 32"><path fill="#0d5c63" style="fill:var(--color1,#0d5c63)" d="M16.953 14.793c3.061 0 5.441-2.486 5.441-5.536S19.9 3.834 16.839 3.834s-5.441 2.486-5.441 5.423c0 3.051 2.494 5.536 5.555 5.536zm-.113-8.7c.113 0 .113 0 0 0 1.814 0 3.287 1.469 3.287 3.276s-1.474 3.163-3.287 3.163a3.163 3.163 0 0 1-3.174-3.163c0-1.808 1.474-3.276 3.174-3.276zM33.731 14.115c-2.154-1.921-4.988-2.938-7.935-2.825h-.907c-.227.904-.567 1.695-1.02 2.373.68-.113 1.247-.113 1.927-.113 2.154-.113 4.308.565 6.008 1.808v8.135h2.267v-9.039l-.34-.339zM23.188 4.059c.567-1.356 2.154-2.034 3.628-1.469 1.36.565 2.04 2.147 1.474 3.615-.453 1.017-1.474 1.695-2.494 1.695-.227 0-.567 0-.794-.113.113.565.113 1.13.113 1.582v.678c.227 0 .453.113.68.113 2.834 0 5.101-2.26 5.101-4.971 0-2.825-2.267-5.084-4.988-5.084-1.814 0-3.401.904-4.308 2.486.567.339 1.134.791 1.587 1.469zM10.265 13.776c-.453-.678-.794-1.469-1.02-2.373h-.907a11.688 11.688 0 0 0-7.935 2.712l-.34.339v9.039H2.33v-8.135c1.814-1.243 3.854-1.921 6.008-1.808.68 0 1.36.113 1.927.226zM8.338 10.047c.227 0 .453 0 .68-.113v-.678c0-.565 0-1.13.113-1.582-.227.113-.567.113-.794.113-1.474 0-2.721-1.243-2.721-2.712s1.247-2.712 2.721-2.712c1.134 0 2.154.678 2.607 1.695.453-.565 1.134-1.13 1.7-1.582C11.17.103 8.11-.687 5.729.781S2.555 5.3 4.029 7.673c.907 1.469 2.494 2.373 4.308 2.373zM26.249 20.893l-.227-.339c-2.267-2.486-5.441-3.954-8.842-3.841-3.401-.113-6.688 1.356-8.956 3.841l-.227.339v8.587c0 1.017.794 1.921 1.927 1.921h14.51c1.02 0 1.927-.904 1.927-1.921v-8.587h-.113zm-2.267 8.248H10.265v-7.457c1.814-1.808 4.308-2.712 6.915-2.712 2.494-.113 4.988.904 6.802 2.712v7.457z"/></symbol><symbol id="icon-consumer" viewBox="0 0 55 32"><path fill="#0d5c63" style="fill:var(--color1,#0d5c63)" d="M49.315 14.037a5.391 5.391 0 0 0-1.923.37l-6.56-5.468c.161-.596.276-1.215.276-1.866 0-3.861-3.048-6.964-6.839-6.964S27.43 3.212 27.43 7.073c0 1.103.273 2.131.717 3.056l-7.958 9.577a5.6 5.6 0 0 0-.966-.098 5.3 5.3 0 0 0-1.401.206l-7.012-7.14c.123-.454.205-.925.205-1.424 0-3.087-2.44-5.571-5.471-5.571S.073 8.164.073 11.25s2.44 5.571 5.471 5.571a5.3 5.3 0 0 0 1.401-.206l7.012 7.14a5.356 5.356 0 0 0-.205 1.424c0 3.087 2.44 5.571 5.472 5.571s5.472-2.485 5.472-5.571c0-.66-.131-1.282-.337-1.869l7.969-9.588c.621.184 1.264.315 1.942.315a6.681 6.681 0 0 0 3.1-.783l6.563 5.468a5.858 5.858 0 0 0-.088.886c0 3.087 2.44 5.571 5.471 5.571s5.472-2.485 5.472-5.571c0-3.087-2.44-5.571-5.472-5.571z"/></symbol><symbol id="icon-environmental" viewBox="0 0 40 32"><path fill="#0d5c63" style="fill:var(--color1,#0d5c63)" d="M24.541 7.262h10.103v2.901H24.541V7.262zM24.541 14.516h10.103v2.901H24.541v-2.901zM24.541 21.769h10.103v2.901H24.541v-2.901z"/><path fill="#0d5c63" style="fill:var(--color1,#0d5c63)" d="M37.531.009H2.891C2.126.01 1.392.316.851.86S.005 2.141.005 2.911v26.112c.001.769.305 1.507.846 2.051s1.275.85 2.04.851h34.64c.765-.001 1.499-.307 2.04-.851s.846-1.281.847-2.05V2.912c-.001-.769-.305-1.507-.846-2.051s-1.275-.85-2.04-.851zM2.89 2.911h15.877v26.112H2.89V2.911zm18.764 26.112V2.911h15.877l.003 26.112h-15.88z"/></symbol><symbol id="icon-finance" viewBox="0 0 37 32"><path fill="#0d5c63" style="fill:var(--color1,#0d5c63)" d="M33.24 6.654h-3.957V2.697A2.642 2.642 0 0 0 26.645.059H10.818A2.642 2.642 0 0 0 8.18 2.697v3.957H4.223a3.958 3.958 0 0 0-3.957 3.957v18.465a2.642 2.642 0 0 0 2.638 2.638h31.654a2.642 2.642 0 0 0 2.638-2.638V10.611a3.958 3.958 0 0 0-3.957-3.957zM10.818 2.697h15.827v3.957H10.818V2.697zm23.741 26.379H2.905v-11.87h10.551v6.595h10.551v-6.595h10.551v11.87zM16.094 17.205h5.276v3.957h-5.276v-3.957zM2.905 14.568v-3.957a1.322 1.322 0 0 1 1.319-1.319H33.24a1.322 1.322 0 0 1 1.319 1.319v3.957H2.905z"/></symbol><symbol id="icon-products" viewBox="0 0 32 32"><path fill="#0d5c63" style="fill:var(--color1,#0d5c63)" opacity=".15" d="M29.1 9.167H2.9c-.012 0-.02.008-.02.02v3.604c0 2.363 1.96 4.279 4.372 4.279a4.395 4.395 0 0 0 3.804-2.161.66.66 0 0 1 1.144 0A4.384 4.384 0 0 0 16 17.07a4.379 4.379 0 0 0 3.804-2.169.646.646 0 0 1 .556-.32h.024a.64.64 0 0 1 .556.32 4.39 4.39 0 0 0 3.808 2.169c2.412 0 4.372-1.916 4.372-4.279V9.187c0-.012-.008-.02-.02-.02z"/><path fill="#0d5c63" style="fill:var(--color1,#0d5c63)" d="M30.8 6.326V1.265A1.27 1.27 0 0 0 29.52.001H2.48A1.27 1.27 0 0 0 1.2 1.265v5.061A1.27 1.27 0 0 0 0 7.586v5.204a7.046 7.046 0 0 0 1.2 3.924v13.632c0 .695.572 1.264 1.28 1.264h27.04a1.27 1.27 0 0 0 1.28-1.264V16.714c.244-.36.453-.743.624-1.142A6.99 6.99 0 0 0 32 12.79V7.586a1.27 1.27 0 0 0-1.2-1.26zM4.08 2.845h23.84v3.477H4.08V2.845zm14.48 25.924h-5.12v-4.113h5.12v4.113zm9.376 0H21.12v-5.378a1.27 1.27 0 0 0-1.28-1.264h-7.68a1.27 1.27 0 0 0-1.28 1.264v5.378h-6.8v-9.57c.116.055.236.111.36.158.892.371 1.84.557 2.816.557a7.31 7.31 0 0 0 4.364-1.43.025.025 0 0 1 .024 0c.477.353.997.646 1.548.873.892.371 1.84.557 2.816.557a7.31 7.31 0 0 0 4.364-1.43.025.025 0 0 1 .024 0c.477.353.997.646 1.548.873.892.371 1.84.557 2.816.557a7.31 7.31 0 0 0 3.176-.715v9.57zM29.12 12.79c0 2.363-1.96 4.279-4.372 4.279A4.39 4.39 0 0 1 20.94 14.9a.64.64 0 0 0-.556-.32h-.024a.646.646 0 0 0-.556.32c-.384.661-.938 1.21-1.606 1.591s-1.427.58-2.198.578a4.384 4.384 0 0 1-3.8-2.161.66.66 0 0 0-1.144 0c-.386.659-.941 1.205-1.609 1.585s-1.425.578-2.195.577c-2.412 0-4.372-1.916-4.372-4.279V9.188c0-.012.008-.02.02-.02h26.2c.012 0 .02.008.02.02v3.603z"/></symbol><symbol id="icon-winning" viewBox="0 0 33 32"><path fill="#0d5c63" style="fill:var(--color1,#0d5c63)" d="M10.709 22.663c-.541-.543-.259-.39-1.563-.741-.592-.159-1.112-.466-1.582-.832l-2.823 6.952a1 1 0 0 0 .96 1.377l3.278-.126 2.255 2.393a.994.994 0 0 0 1.645-.31l3.239-7.976c-.674.377-1.423.599-2.197.599a4.5 4.5 0 0 1-3.211-1.336zm17.776 5.38-2.823-6.952c-.47.367-.991.673-1.582.832-1.311.353-1.024.199-1.563.741A4.506 4.506 0 0 1 19.305 24c-.774 0-1.523-.222-2.197-.599l3.239 7.976a.994.994 0 0 0 1.645.31l2.256-2.393 3.278.126a1 1 0 0 0 .96-1.377zm-7.454-6.794c.951-.972 1.06-.888 2.414-1.259a2.535 2.535 0 0 0 1.771-1.811c.465-1.775.345-1.561 1.615-2.859a2.6 2.6 0 0 0 .648-2.474c-.465-1.774-.465-1.526 0-3.302a2.604 2.604 0 0 0-.648-2.474c-1.27-1.299-1.149-1.085-1.615-2.859A2.533 2.533 0 0 0 23.445 2.4c-1.735-.476-1.526-.351-2.797-1.651a2.468 2.468 0 0 0-2.42-.663c-1.734.475-1.492.476-3.229 0a2.468 2.468 0 0 0-2.42.663c-1.27 1.299-1.061 1.175-2.796 1.651a2.535 2.535 0 0 0-1.771 1.811c-.465 1.774-.345 1.561-1.615 2.859a2.6 2.6 0 0 0-.648 2.474c.465 1.773.465 1.525 0 3.301a2.604 2.604 0 0 0 .648 2.474c1.27 1.299 1.149 1.084 1.615 2.859a2.533 2.533 0 0 0 1.771 1.811c1.393.381 1.496.321 2.413 1.259a2.464 2.464 0 0 0 3.095.364 2.465 2.465 0 0 1 2.646 0 2.463 2.463 0 0 0 3.094-.364zM10.743 10.996c0-3.314 2.628-6.001 5.87-6.001s5.87 2.687 5.87 6.001c0 3.314-2.628 6.001-5.87 6.001s-5.87-2.687-5.87-6.001z"/></symbol></defs></svg>